<svg width="365" height="200" viewBox="0 0 365 200" fill="none" xmlns="http://www.w3.org/2000/svg">
<path d="M209 49L208.99 50L209 49ZM345.059 197.838C345.246 198.358 345.819 198.628 346.338 198.441L354.807 195.395C355.327 195.208 355.597 194.635 355.41 194.116C355.223 193.596 354.65 193.326 354.13 193.513L346.602 196.22L343.895 188.692C343.708 188.173 343.135 187.903 342.616 188.09C342.096 188.277 341.826 188.85 342.013 189.369L345.059 197.838ZM2.49996 0.499865C1.50002 0.510616 1.50003 0.51116 1.50003 0.511713C1.50004 0.511911 1.50004 0.512477 1.50005 0.512872C1.50006 0.513668 1.50007 0.514508 1.50008 0.515389C1.50011 0.517155 1.50014 0.519092 1.50018 0.521205C1.50026 0.525426 1.50038 0.530337 1.50053 0.535934C1.50085 0.547128 1.50133 0.561062 1.50208 0.577695C1.50359 0.61096 1.50617 0.655014 1.51058 0.709514C1.5194 0.818532 1.53554 0.969285 1.56505 1.15905C1.62411 1.53874 1.73658 2.07375 1.95059 2.74229C2.3791 4.08095 3.21152 5.94508 4.82483 8.16297L6.4422 6.98648C4.95216 4.93806 4.2178 3.26476 3.85538 2.13256C3.67391 1.56568 3.58488 1.13191 3.54129 0.851671C3.51949 0.711479 3.50902 0.609483 3.50407 0.548239C3.50159 0.517613 3.50049 0.497161 3.50004 0.487204C3.49981 0.482223 3.49975 0.479866 3.49976 0.48017C3.49976 0.480324 3.49978 0.48114 3.49981 0.482629C3.49983 0.483374 3.49984 0.484288 3.49986 0.485367C3.49987 0.485908 3.49987 0.48649 3.49988 0.487112C3.49989 0.487427 3.49989 0.487924 3.49989 0.488081C3.4999 0.48859 3.49991 0.489114 2.49996 0.499865ZM16.7253 18.7695C20.4234 21.1555 25.0191 23.6264 30.7309 26.0857L31.5218 24.2487C25.8982 21.8274 21.4026 19.4071 17.8095 17.089L16.7253 18.7695ZM45.5952 31.5709C50.1592 33.0213 55.1971 34.4411 60.7582 35.8086L61.2357 33.8665C55.7142 32.5087 50.7193 31.1007 46.2009 29.6649L45.5952 31.5709ZM76.04 39.1565C80.8869 40.101 86.0501 41.0059 91.5502 41.8622L91.8579 39.886C86.3813 39.0334 81.2431 38.1328 76.4225 37.1934L76.04 39.1565ZM107.058 44.0273C112.028 44.6468 117.233 45.2288 122.684 45.7684L122.881 43.7781C117.446 43.2401 112.258 42.66 107.305 42.0426L107.058 44.0273ZM138.353 47.1455C143.39 47.5351 148.611 47.8907 154.026 48.2091L154.144 46.2126C148.741 45.8948 143.531 45.5401 138.508 45.1515L138.353 47.1455ZM169.687 49.001C174.751 49.217 179.967 49.4024 185.34 49.5551L185.397 47.5559C180.033 47.4035 174.826 47.2184 169.773 47.0028L169.687 49.001ZM201 49.8987C203.629 49.9399 206.292 49.9738 208.99 50L209.01 48C206.315 47.9739 203.656 47.9401 201.032 47.8989L201 49.8987ZM208.99 50C211.725 50.0265 214.41 50.0786 217.048 50.1554L217.106 48.1563C214.455 48.079 211.757 48.0267 209.01 48L208.99 50ZM232.724 50.9391C238.159 51.3308 243.364 51.8381 248.349 52.4535L248.594 50.4686C243.574 49.8488 238.335 49.3383 232.868 48.9443L232.724 50.9391ZM263.879 54.8418C269.286 55.8501 274.39 57.0012 279.208 58.282L279.722 56.3492C274.853 55.0547 269.699 53.8927 264.246 52.8757L263.879 54.8418ZM294.14 62.982C299.295 64.8844 304.044 66.9597 308.416 69.1836L309.323 67.401C304.877 65.1397 300.056 63.0335 294.832 61.1057L294.14 62.982ZM321.846 77.2645C326.322 80.4476 330.255 83.8232 333.701 87.3436L335.13 85.9446C331.599 82.3369 327.575 78.8844 323.005 75.6345L321.846 77.2645ZM343.412 99.4657C346.323 103.973 348.638 108.617 350.449 113.32L352.315 112.601C350.457 107.777 348.081 103.009 345.092 98.3806L343.412 99.4657ZM354.614 128.315C355.558 133.553 356.008 138.761 356.09 143.835L358.09 143.803C358.006 138.634 357.548 133.316 356.583 127.96L354.614 128.315ZM355.25 159.465C354.582 165.016 353.584 170.208 352.468 174.856L354.413 175.323C355.544 170.61 356.558 165.342 357.235 159.704L355.25 159.465ZM347.972 189.904C347.147 192.187 346.425 193.985 345.911 195.21C345.654 195.822 345.448 196.291 345.308 196.605C345.238 196.763 345.184 196.881 345.148 196.96C345.13 196.999 345.116 197.028 345.107 197.047C345.103 197.057 345.1 197.064 345.098 197.068C345.097 197.07 345.096 197.072 345.096 197.073C345.095 197.073 345.095 197.074 345.095 197.074C345.095 197.074 345.095 197.074 345.095 197.074C345.095 197.074 345.095 197.074 345.095 197.074C345.095 197.074 345.095 197.074 346 197.5C346.904 197.926 346.905 197.926 346.905 197.926C346.905 197.926 346.905 197.926 346.905 197.926C346.905 197.925 346.905 197.925 346.905 197.925C346.905 197.924 346.906 197.924 346.906 197.923C346.907 197.921 346.908 197.919 346.909 197.916C346.912 197.91 346.916 197.902 346.921 197.891C346.931 197.868 346.946 197.836 346.966 197.794C347.005 197.709 347.061 197.584 347.134 197.421C347.28 197.093 347.492 196.611 347.755 195.984C348.281 194.731 349.016 192.901 349.853 190.583L347.972 189.904ZM209 49L208.981 50.9999L209 49ZM344.118 198.177C344.492 199.216 345.637 199.756 346.677 199.382L363.615 193.29C364.654 192.917 365.194 191.771 364.82 190.732C364.446 189.692 363.3 189.153 362.261 189.526L347.205 194.941L341.79 179.885C341.417 178.846 340.271 178.306 339.232 178.68C338.192 179.054 337.653 180.199 338.026 181.239L344.118 198.177ZM2.49996 0.499865C0.500079 0.52137 0.500091 0.522444 0.500104 0.52353C0.500108 0.523905 0.500121 0.525003 0.500131 0.525754C0.50015 0.527261 0.500173 0.528808 0.500196 0.530404C0.500244 0.533589 0.500301 0.536953 0.500369 0.54049C0.500506 0.547565 0.500687 0.555341 0.500923 0.563812C0.501395 0.580757 0.502092 0.60048 0.503109 0.622938C0.505143 0.66786 0.508461 0.723712 0.513835 0.790154C0.524588 0.923055 0.543564 1.09818 0.576933 1.31274C0.643724 1.74215 0.767915 2.32779 0.998194 3.04717C1.45975 4.48904 2.34121 6.44859 4.01615 8.75121L7.25088 6.39824C5.82248 4.43454 5.13715 2.85667 4.80777 1.82769C4.64258 1.31164 4.56526 0.928495 4.52941 0.697984C4.51146 0.582576 4.50383 0.504956 4.50081 0.467602C4.4993 0.448911 4.49894 0.440262 4.49901 0.441956C4.49905 0.442805 4.4992 0.446236 4.49937 0.452292C4.49945 0.455316 4.49954 0.459001 4.49963 0.463343C4.49967 0.465517 4.49971 0.467854 4.49975 0.470356C4.49976 0.471605 4.49978 0.472898 4.4998 0.474234C4.49981 0.4749 4.49982 0.475934 4.49982 0.476265C4.49984 0.477307 4.49985 0.47836 2.49996 0.499865ZM16.1831 19.6098C19.9338 22.0297 24.5795 24.5259 30.3354 27.0042L31.9173 23.3303C26.3377 20.9279 21.8922 18.533 18.3517 16.2487L16.1831 19.6098ZM45.2924 32.524C49.8792 33.9816 54.9385 35.4073 60.5194 36.7797L61.4745 32.8954C55.9728 31.5425 50.9994 30.1405 46.5038 28.7118L45.2924 32.524ZM75.8487 40.138C80.7087 41.0851 85.8844 41.9922 91.3964 42.8503L92.0117 38.8979C86.547 38.0471 81.4213 37.1487 76.6138 36.2119L75.8487 40.138ZM106.934 45.0196C111.913 45.6402 117.126 46.2231 122.585 46.7635L122.979 42.783C117.553 42.2458 112.373 41.6666 107.429 41.0503L106.934 45.0196ZM138.276 48.1425C143.319 48.5326 148.547 48.8886 153.967 49.2074L154.202 45.2143C148.805 44.8969 143.602 44.5426 138.585 44.1544L138.276 48.1425ZM169.645 50.0001C174.713 50.2163 179.934 50.4019 185.312 50.5547L185.425 46.5563C180.066 46.404 174.864 46.2191 169.815 46.0037L169.645 50.0001ZM200.985 50.8985C203.615 50.9398 206.28 50.9737 208.981 50.9999L209.019 47.0001C206.327 46.974 203.67 46.9402 201.047 46.899L200.985 50.8985ZM208.981 50.9999C211.709 51.0264 214.388 51.0783 217.019 51.155L217.135 47.1567C214.478 47.0793 211.773 47.0268 209.019 47.0001L208.981 50.9999ZM232.652 51.9366C238.071 52.327 243.259 52.8328 248.226 53.446L248.716 49.4761C243.678 48.8542 238.423 48.342 232.94 47.9469L232.652 51.9366ZM263.696 55.8249C269.079 56.8288 274.159 57.9745 278.951 59.2485L279.979 55.3828C275.084 54.0815 269.906 52.914 264.429 51.8927L263.696 55.8249ZM293.794 63.9201C298.914 65.8098 303.627 67.8698 307.962 70.0749L309.776 66.5097C305.294 64.2297 300.437 62.1081 295.178 60.1675L293.794 63.9201ZM321.266 78.0795C325.696 81.2292 329.583 84.5664 332.987 88.0431L335.845 85.245C332.271 81.5937 328.202 78.1028 323.584 74.8195L321.266 78.0795ZM342.572 100.008C345.444 104.455 347.728 109.038 349.516 113.679L353.248 112.242C351.367 107.356 348.96 102.527 345.932 97.8381L342.572 100.008ZM353.63 128.492C354.563 133.671 355.009 138.825 355.09 143.851L359.09 143.787C359.006 138.57 358.542 133.198 357.567 127.783L353.63 128.492ZM354.257 159.346C353.595 164.853 352.604 170.006 351.496 174.623L355.385 175.556C356.524 170.811 357.545 165.505 358.228 159.823L354.257 159.346ZM347.031 189.564C346.213 191.83 345.497 193.612 344.989 194.823C344.735 195.428 344.532 195.89 344.395 196.198C344.326 196.352 344.274 196.467 344.239 196.543C344.222 196.58 344.209 196.608 344.201 196.626C344.197 196.634 344.194 196.641 344.192 196.644C344.191 196.646 344.191 196.647 344.19 196.648C344.19 196.648 344.19 196.648 344.19 196.648C344.19 196.648 344.19 196.648 344.19 196.648C344.19 196.648 344.19 196.648 344.19 196.648C344.19 196.648 344.19 196.648 346 197.5C347.809 198.352 347.809 198.352 347.809 198.352C347.809 198.352 347.809 198.351 347.809 198.351C347.81 198.351 347.81 198.351 347.81 198.35C347.81 198.35 347.811 198.349 347.811 198.348C347.812 198.346 347.813 198.343 347.815 198.34C347.818 198.333 347.822 198.324 347.828 198.312C347.839 198.289 347.854 198.255 347.875 198.211C347.915 198.123 347.973 197.995 348.047 197.828C348.196 197.495 348.411 197.005 348.677 196.372C349.209 195.104 349.95 193.259 350.793 190.923L347.031 189.564Z" fill="url(#paint0_linear_304_30)" fill-opacity="0.5"/>
<defs>
<linearGradient id="paint0_linear_304_30" x1="-108.666" y1="-68.5722" x2="244.338" y2="243.465" gradientUnits="userSpaceOnUse">
<stop stop-color="#5FB5F3"/>
<stop offset="1" stop-color="#F3D25F"/>
</linearGradient>
</defs>
</svg>
