<svg width="211" height="160" viewBox="0 0 211 160" fill="none" xmlns="http://www.w3.org/2000/svg">
<path d="M21.6368 157.393C21.5476 157.938 21.0334 158.308 20.4884 158.219L11.6065 156.765C11.0615 156.676 10.692 156.162 10.7811 155.617C10.8703 155.072 11.3845 154.702 11.9295 154.792L19.8245 156.084L21.1165 148.189C21.2057 147.643 21.7198 147.274 22.2648 147.363C22.8099 147.452 23.1794 147.966 23.0902 148.512L21.6368 157.393ZM210.107 3.49417C207.549 3.76921 205.022 4.05222 202.526 4.34303L202.294 2.35646C204.796 2.06497 207.329 1.7813 209.893 1.50563L210.107 3.49417ZM187.915 6.17998C182.844 6.86625 177.909 7.5865 173.107 8.33908L172.798 6.36321C177.613 5.60839 182.562 4.88613 187.647 4.19805L187.915 6.17998ZM158.604 10.7818C153.598 11.6857 148.752 12.6271 144.06 13.6036L143.652 11.6455C148.362 10.6653 153.226 9.72061 158.248 8.81359L158.604 10.7818ZM129.508 16.8595C124.541 18.0527 119.767 19.2882 115.179 20.5627L114.644 18.6357C119.255 17.3547 124.052 16.1133 129.04 14.9148L129.508 16.8595ZM101.048 24.7951C96.1661 26.3708 91.5264 27.9942 87.1181 29.6602L86.411 27.7894C90.8515 26.1112 95.5222 24.477 100.434 22.8918L101.048 24.7951ZM73.4442 35.2839C68.6983 37.4093 64.2755 39.5885 60.156 41.8122L59.206 40.0522C63.3713 37.8038 67.8386 35.6029 72.6268 33.4586L73.4442 35.2839ZM47.484 49.4009C43.156 52.2855 39.267 55.2227 35.7788 58.1941L34.4819 56.6716C38.0334 53.6463 41.9855 50.6621 46.3748 47.7367L47.484 49.4009ZM25.2886 68.5389C21.8728 72.4862 19.0627 76.4573 16.7734 80.4125L15.0424 79.4106C17.3968 75.3429 20.2809 71.2694 23.7763 67.2302L25.2886 68.5389ZM10.8681 93.7578C9.33106 98.6453 8.46884 103.445 8.11713 108.081L6.12287 107.929C6.48542 103.151 7.37459 98.1998 8.96023 93.1578L10.8681 93.7578ZM8.5917 122.676C9.30286 127.86 10.5225 132.659 11.9378 136.921L10.0398 137.551C8.59163 133.19 7.34053 128.271 6.61025 122.948L8.5917 122.676ZM17.7427 150.452C18.8038 152.441 19.7386 153.997 20.4059 155.052C20.7395 155.58 21.0061 155.983 21.188 156.252C21.2789 156.386 21.3487 156.487 21.3951 156.553C21.4183 156.587 21.4357 156.611 21.4469 156.627C21.4525 156.635 21.4566 156.641 21.4591 156.644C21.4603 156.646 21.4612 156.647 21.4617 156.648C21.4619 156.648 21.4621 156.648 21.4621 156.649C21.4621 156.649 21.4621 156.649 21.4621 156.648C21.4621 156.648 21.462 156.648 21.462 156.648C21.462 156.648 21.4619 156.648 20.6499 157.232C19.8379 157.816 19.8378 157.815 19.8377 157.815C19.8377 157.815 19.8376 157.815 19.8375 157.815C19.8374 157.815 19.8373 157.815 19.8371 157.814C19.8367 157.814 19.8362 157.813 19.8357 157.812C19.8346 157.811 19.833 157.809 19.8311 157.806C19.8273 157.801 19.8219 157.793 19.8149 157.783C19.8011 157.764 19.781 157.735 19.7552 157.698C19.7034 157.624 19.6281 157.515 19.5316 157.373C19.3386 157.087 19.0606 156.667 18.7153 156.121C18.0247 155.029 17.0648 153.43 15.9782 151.394L17.7427 150.452ZM22.6236 157.555C22.4452 158.645 21.417 159.384 20.3269 159.206L2.56316 156.299C1.47309 156.12 0.734028 155.092 0.912403 154.002C1.09079 152.912 2.11907 152.173 3.20914 152.351L18.9991 154.935L21.583 139.145C21.7614 138.055 22.7897 137.316 23.8798 137.494C24.9698 137.673 25.7089 138.701 25.5305 139.791L22.6236 157.555ZM210.214 4.48844C207.658 4.76317 205.135 5.04585 202.641 5.33631L202.179 1.36318C204.684 1.07134 207.219 0.787343 209.786 0.511362L210.214 4.48844ZM188.049 7.17095C182.984 7.85631 178.056 8.57556 173.262 9.32702L172.643 5.37527C177.466 4.61934 182.421 3.89606 187.513 3.20708L188.049 7.17095ZM158.781 11.7658C153.784 12.6683 148.947 13.608 144.264 14.5826L143.449 10.6665C148.168 9.68445 153.04 8.73805 158.07 7.82952L158.781 11.7658ZM129.741 17.8318C124.785 19.0224 120.023 20.255 115.447 21.5262L114.376 17.6722C118.999 16.3879 123.807 15.1436 128.807 13.9425L129.741 17.8318ZM101.355 25.7468C96.488 27.3177 91.8638 28.9357 87.4716 30.5957L86.0575 26.8539C90.514 25.1697 95.2002 23.5301 100.127 21.9402L101.355 25.7468ZM73.8529 36.1966C69.1282 38.3125 64.7275 40.4809 60.631 42.6922L58.7309 39.1722C62.9192 36.9114 67.4087 34.6997 72.218 32.5459L73.8529 36.1966ZM48.0386 50.233C43.7412 53.0972 39.8838 56.0109 36.4273 58.9554L33.8335 55.9104C37.4166 52.8581 41.4003 49.8504 45.8202 46.9046L48.0386 50.233ZM26.0448 69.1933C22.6688 73.0945 19.8956 77.0145 17.6388 80.9135L14.1769 78.9097C16.5639 74.7857 19.4849 70.6611 23.0201 66.5758L26.0448 69.1933ZM11.8221 94.0578C10.3093 98.8681 9.46054 103.593 9.11427 108.156L5.12573 107.854C5.4937 103.004 6.39637 97.9771 8.00629 92.8578L11.8221 94.0578ZM9.58242 122.54C10.284 127.655 11.4879 132.393 12.8869 136.605L9.09074 137.866C7.62622 133.456 6.35936 128.477 5.61954 123.084L9.58242 122.54ZM18.6249 149.982C19.6733 151.946 20.5955 153.481 21.2512 154.518C21.5789 155.037 21.8398 155.431 22.0162 155.691C22.1044 155.822 22.1714 155.918 22.2151 155.981C22.237 156.012 22.253 156.035 22.2629 156.049C22.2678 156.056 22.2712 156.061 22.2731 156.063C22.274 156.065 22.2745 156.065 22.2747 156.066C22.2748 156.066 22.2747 156.066 22.2746 156.066C22.2745 156.065 22.2744 156.065 22.2743 156.065C22.2743 156.065 22.2742 156.065 22.2741 156.065C22.274 156.065 22.2739 156.065 20.6499 157.232C19.0258 158.399 19.0257 158.399 19.0256 158.399C19.0255 158.399 19.0254 158.399 19.0253 158.398C19.0251 158.398 19.0248 158.398 19.0246 158.397C19.024 158.397 19.0234 158.396 19.0227 158.395C19.0212 158.393 19.0194 158.39 19.0171 158.387C19.0126 158.381 19.0066 158.372 18.999 158.361C18.9838 158.34 18.9624 158.31 18.9352 158.271C18.8807 158.193 18.8027 158.08 18.7034 157.933C18.5049 157.64 18.2211 157.211 17.87 156.655C17.1678 155.544 16.1953 153.925 15.096 151.865L18.6249 149.982Z" fill="url(#paint0_linear_304_47)" fill-opacity="0.5"/>
<defs>
<linearGradient id="paint0_linear_304_47" x1="263.447" y1="7.15812" x2="11.34" y2="168.403" gradientUnits="userSpaceOnUse">
<stop stop-color="#F3D25F"/>
<stop offset="1" stop-color="#5FB5F3"/>
</linearGradient>
</defs>
</svg>
