<svg width="228" height="63" viewBox="0 0 228 63" fill="none" xmlns="http://www.w3.org/2000/svg">
<path d="M76.7603 32.8616C76.7603 29.2658 78.2479 26.2693 81.1239 23.7722C83.9999 21.2751 87.7685 20.0765 92.3305 20.0765V24.2716C89.6528 24.2716 87.2727 24.8709 85.3884 25.9697C83.5041 27.0684 82.2148 28.6665 81.6198 30.5643H92.3305L91.6363 34.4597H81.3222C81.6198 35.958 82.4132 37.2565 83.6032 38.2553C84.7933 39.2541 86.3801 39.7535 88.3636 39.7535C89.9504 39.7535 91.2396 39.5538 92.3305 39.2541V42.9498C91.1404 43.5491 89.752 43.9486 87.9669 43.9486C84.4958 43.9486 81.7189 42.8499 79.7355 40.7524C77.752 38.6548 76.7603 35.958 76.7603 32.8616Z" fill="black"/>
<path d="M99.9668 18.6783V14.4832H118.711L118.314 18.6783V38.8547H122.38L120 49.1427H115.438L116.826 42.9499H98.975V49.1427H94.413V38.8547H97.2891L105.818 18.6783H99.9668ZM110.479 18.6783L101.653 38.8547H113.653V18.6783H110.479Z" fill="black"/>
<path d="M125.752 42.9499V20.9755H130.215V29.6654H139.537V20.9755L144 20.2764V42.9499H139.537V33.5608H130.215V42.9499H125.752Z" fill="black"/>
<path d="M150.843 42.9499V24.871H147.669V21.3751L150.843 20.9756L155.306 20.1765V42.9499H150.843ZM151.041 17.8792L151.636 11.7863L156.397 12.3856L155.405 17.2799L151.041 17.8792Z" fill="black"/>
<path d="M161.058 42.9499V20.9755H174.446L178.909 20.2764V42.9499H174.446V24.871H165.62V42.9499C165.521 42.9499 161.058 42.9499 161.058 42.9499Z" fill="black"/>
<path d="M184.661 49.3424V20.7758H185.752L187.636 21.7746C189.322 20.6759 191.107 20.1765 193.091 20.1765C196.165 20.1765 198.644 21.0754 200.529 23.0731C202.413 24.9709 203.306 27.5678 203.306 30.864C203.306 34.5596 201.917 37.656 199.24 40.1531C196.562 42.6502 193.091 43.9487 189.025 43.9487V49.4423L184.661 49.3424ZM192.892 24.1718C191.603 24.1718 190.413 24.5713 189.124 25.4703V39.6537C192.198 39.6537 194.578 38.7547 196.363 37.1566C198.149 35.4586 199.041 33.3611 199.041 30.7641C199.041 28.6665 198.446 27.0684 197.256 25.8698C196.066 24.7711 194.578 24.1718 192.892 24.1718Z" fill="black"/>
<path d="M206.479 32.7617C206.479 29.1659 207.471 26.0695 209.455 23.6723C211.438 21.2751 214.116 20.0765 217.488 20.0765C220.76 20.0765 223.339 21.1753 225.223 23.3727C227.107 25.5701 228 28.1671 228 31.1636C228 34.7594 227.008 37.8558 225.025 40.253C223.041 42.6502 220.364 43.8488 216.992 43.8488C213.719 43.8488 211.141 42.75 209.256 40.5526C207.372 38.4551 206.479 35.7582 206.479 32.7617ZM223.537 31.5631C223.537 29.5654 223.041 27.7676 221.95 26.3692C220.86 24.9708 219.372 24.2716 217.488 24.2716C215.306 24.2716 213.719 24.9708 212.628 26.4691C211.537 27.9673 211.041 29.8651 211.041 32.4621C211.041 34.4597 211.537 36.2576 212.628 37.656C213.719 39.0544 215.207 39.7535 217.091 39.7535C219.273 39.7535 220.86 39.0544 221.95 37.5561C222.942 36.1577 223.537 34.1601 223.537 31.5631Z" fill="black"/>
<path d="M12.1984 62.7267H8.92562C4.06612 62.7267 0 58.7313 0 53.7372V50.441C0 49.3423 0.892562 48.4434 1.98347 48.4434C3.07438 48.4434 3.96694 49.3423 3.96694 50.441V53.7372C3.96694 56.5339 6.14876 58.7313 8.92562 58.7313H12.0992C13.1901 58.7313 14.0826 59.6303 14.0826 60.729C14.0826 61.8277 13.2893 62.7267 12.1984 62.7267Z" fill="black"/>
<path d="M53.3554 62.7267H50.0827C48.9918 62.7267 48.0992 61.8277 48.0992 60.729C48.0992 59.6303 48.9918 58.7313 50.0827 58.7313H53.3554C56.1323 58.7313 58.3141 56.5339 58.3141 53.7372V50.441C58.3141 49.3423 59.2067 48.4434 60.2976 48.4434C61.3885 48.4434 62.2811 49.3423 62.2811 50.441V53.7372C62.2811 58.6315 58.3141 62.7267 53.3554 62.7267Z" fill="black"/>
<path d="M60.2975 15.1823C59.2066 15.1823 58.314 14.2833 58.314 13.1846V8.98949C58.314 6.19276 56.1322 3.99533 53.3553 3.99533H49.2892C48.1983 3.99533 47.3057 3.09638 47.3057 1.99767C47.3057 0.898949 48.1983 0 49.2892 0H53.3553C58.314 0 62.281 3.99533 62.281 8.98949V13.1846C62.281 14.2833 61.3884 15.1823 60.2975 15.1823Z" fill="black"/>
<path d="M2.08271 14.2833C0.991805 14.2833 0.0992432 13.3844 0.0992432 12.2857V8.9895C0.0992432 4.09522 4.06619 0 9.02487 0H12.3968C13.4877 0 14.3802 0.89895 14.3802 1.99767C14.3802 3.09638 13.4877 3.99533 12.3968 3.99533H9.02487C6.24801 3.99533 4.06619 6.19277 4.06619 8.9895V12.2857C4.06619 13.3844 3.17362 14.2833 2.08271 14.2833Z" fill="black"/>
<path d="M47.4051 35.5584L19.7356 9.88841C19.4381 9.58876 19.0414 9.58876 18.6447 9.68864C18.248 9.88841 18.0497 10.1881 18.0497 10.5876V48.4434C18.0497 48.8429 18.248 49.2424 18.6447 49.3423C19.0414 49.5421 19.4381 49.4422 19.7356 49.1425L27.1737 41.9509L31.8348 52.5386C31.934 52.8382 32.2315 53.038 32.529 53.1379C32.6282 53.1379 32.6282 53.1379 32.7274 53.1379C33.0249 53.1379 33.2232 53.038 33.4216 52.8382C35.2067 50.9404 36.3968 50.8405 37.7852 50.6408C38.6778 50.5409 39.5704 50.441 40.5621 49.8417C41.058 49.6419 41.1571 49.0427 40.9588 48.5432L36.2976 37.8557L46.6117 37.1565C47.0084 37.1565 47.4051 36.8569 47.5042 36.4574C47.6034 36.0578 47.7026 35.8581 47.4051 35.5584ZM31.4381 34.7593C31.2398 35.059 31.2398 35.3586 31.3389 35.6583L36.2976 47.1449C36.1984 47.1449 36.0993 47.1449 36.0001 47.2448C35.4051 47.3446 34.81 47.4445 34.0166 48.0438L29.058 36.757C28.9588 36.4574 28.6613 36.2576 28.3637 36.1577C28.2646 36.1577 28.2646 36.1577 28.1654 36.1577C27.8679 36.1577 27.6695 36.2576 27.4712 36.4574L21.8183 41.8511V16.8802L40.0662 33.7605L32.2315 34.2599C31.934 34.2599 31.6365 34.4597 31.4381 34.7593Z" fill="black"/>
</svg>
