<svg width="38" height="39" viewBox="0 0 38 39" fill="none" xmlns="http://www.w3.org/2000/svg">
<g clip-path="url(#clip0_2_60)">
<path d="M28.9466 6.10425C27.6636 6.10425 26.6204 7.17493 26.6204 8.49175C26.6204 9.80857 27.6636 10.8793 28.9466 10.8793C30.2297 10.8793 31.2729 9.80857 31.2729 8.49175C31.2729 7.17493 30.2297 6.10425 28.9466 6.10425Z" fill="black"/>
<path d="M27.9154 39H10.0846C4.52067 39 0 34.3604 0 28.65V10.35C0 4.63963 4.52067 0 10.0846 0H27.9154C33.4793 0 38 4.63963 38 10.35V28.65C38 34.3604 33.4793 39 27.9154 39ZM10.0846 3.07668C6.17545 3.07668 2.99779 6.33796 2.99779 10.35V28.65C2.99779 32.662 6.17545 35.9233 10.0846 35.9233H27.9154C31.8246 35.9233 35.0022 32.662 35.0022 28.65V10.35C35.0022 6.33796 31.8246 3.07668 27.9154 3.07668H10.0846Z" fill="black"/>
<path d="M19.1739 29.7824C13.7898 29.7824 9.40106 25.2904 9.40106 19.7524C9.40106 14.2144 13.7778 9.72241 19.1739 9.72241C24.5699 9.72241 28.9467 14.2144 28.9467 19.7524C28.9467 25.2904 24.5579 29.7824 19.1739 29.7824ZM19.1739 12.8114C15.4446 12.8114 12.3989 15.925 12.3989 19.7647C12.3989 23.6044 15.4326 26.718 19.1739 26.718C22.9151 26.718 25.9489 23.6044 25.9489 19.7647C25.9489 15.925 22.9031 12.8114 19.1739 12.8114Z" fill="black"/>
</g>
<defs>
<clipPath id="clip0_2_60">
<rect width="38" height="39" fill="white"/>
</clipPath>
</defs>
</svg>
