<svg width="28" height="25" viewBox="0 0 28 25" fill="none" xmlns="http://www.w3.org/2000/svg">
<path d="M14 24.9668L12.6333 23.7334C10.2777 21.5779 8.33329 19.7168 6.79996 18.1501C5.26663 16.5834 4.0444 15.1834 3.13329 13.9501C2.22218 12.7168 1.58329 11.6001 1.21663 10.6001C0.849959 9.60011 0.666626 8.589 0.666626 7.56678C0.666626 5.56678 1.33885 3.89456 2.68329 2.55011C4.02774 1.20567 5.68885 0.533447 7.66663 0.533447C8.93329 0.533447 10.1055 0.833447 11.1833 1.43345C12.2611 2.03345 13.2 2.90011 14 4.03345C14.9333 2.83345 15.9222 1.95011 16.9666 1.38345C18.0111 0.81678 19.1333 0.533447 20.3333 0.533447C22.3111 0.533447 23.9722 1.20567 25.3166 2.55011C26.6611 3.89456 27.3333 5.56678 27.3333 7.56678C27.3333 8.589 27.15 9.60011 26.7833 10.6001C26.4166 11.6001 25.7777 12.7168 24.8666 13.9501C23.9555 15.1834 22.7333 16.5834 21.2 18.1501C19.6666 19.7168 17.7222 21.5779 15.3666 23.7334L14 24.9668Z" fill="#FE5E5E"/>
</svg>
